<mxfile host="65bd71144e">
    <diagram id="apet5OLyNNQHsize-prF" name="Page-1">
        <mxGraphModel dx="646" dy="353" grid="1" gridSize="10" guides="1" tooltips="1" connect="1" arrows="1" fold="1" page="1" pageScale="1" pageWidth="2000" pageHeight="2000" math="0" shadow="0">
            <root>
                <mxCell id="0"/>
                <mxCell id="1" parent="0"/>
                <mxCell id="2" value="Users" style="whiteSpace=wrap;html=1;align=center;" parent="1" vertex="1">
                    <mxGeometry x="440" y="760" width="100" height="40" as="geometry"/>
                </mxCell>
                <mxCell id="3" value="&lt;meta charset=&quot;utf-8&quot;&gt;MenuItem" style="whiteSpace=wrap;html=1;align=center;" parent="1" vertex="1">
                    <mxGeometry x="900" y="760" width="100" height="40" as="geometry"/>
                </mxCell>
                <mxCell id="4" value="Order" style="whiteSpace=wrap;html=1;align=center;" parent="1" vertex="1">
                    <mxGeometry x="900" y="1000.29" width="100" height="40" as="geometry"/>
                </mxCell>
                <mxCell id="5" value="Email" style="ellipse;whiteSpace=wrap;html=1;align=center;" parent="1" vertex="1">
                    <mxGeometry x="340" y="710" width="100" height="40" as="geometry"/>
                </mxCell>
                <mxCell id="6" value="Password" style="ellipse;whiteSpace=wrap;html=1;align=center;" parent="1" vertex="1">
                    <mxGeometry x="320" y="810" width="100" height="40" as="geometry"/>
                </mxCell>
                <mxCell id="7" value="" style="endArrow=none;html=1;rounded=0;exitX=1;exitY=0;exitDx=0;exitDy=0;entryX=0;entryY=1;entryDx=0;entryDy=0;" parent="1" source="6" target="2" edge="1">
                    <mxGeometry relative="1" as="geometry">
                        <mxPoint x="560" y="920" as="sourcePoint"/>
                        <mxPoint x="720" y="920" as="targetPoint"/>
                    </mxGeometry>
                </mxCell>
                <mxCell id="8" value="" style="endArrow=none;html=1;rounded=0;exitX=0;exitY=0;exitDx=0;exitDy=0;entryX=1;entryY=1;entryDx=0;entryDy=0;" parent="1" source="2" target="5" edge="1">
                    <mxGeometry relative="1" as="geometry">
                        <mxPoint x="415" y="826" as="sourcePoint"/>
                        <mxPoint x="450" y="820" as="targetPoint"/>
                    </mxGeometry>
                </mxCell>
                <mxCell id="9" value="id" style="ellipse;whiteSpace=wrap;html=1;align=center;fontStyle=4;" parent="1" vertex="1">
                    <mxGeometry x="520" y="710" width="100" height="40" as="geometry"/>
                </mxCell>
                <mxCell id="10" value="" style="endArrow=none;html=1;rounded=0;entryX=0.5;entryY=1;entryDx=0;entryDy=0;exitX=1;exitY=0;exitDx=0;exitDy=0;" parent="1" source="2" target="9" edge="1">
                    <mxGeometry relative="1" as="geometry">
                        <mxPoint x="540" y="770" as="sourcePoint"/>
                        <mxPoint x="460" y="830" as="targetPoint"/>
                    </mxGeometry>
                </mxCell>
                <mxCell id="11" value="MenuItemID" style="ellipse;whiteSpace=wrap;html=1;align=center;fontStyle=4;" parent="1" vertex="1">
                    <mxGeometry x="1000" y="700" width="80" height="40" as="geometry"/>
                </mxCell>
                <mxCell id="12" value="Name&lt;span style=&quot;font-family: monospace; font-size: 0px; text-align: start; text-wrap: nowrap;&quot;&gt;%3CmxGraphModel%3E%3Croot%3E%3CmxCell%20id%3D%220%22%2F%3E%3CmxCell%20id%3D%221%22%20parent%3D%220%22%2F%3E%3CmxCell%20id%3D%222%22%20value%3D%22UserID%22%20style%3D%22ellipse%3BwhiteSpace%3Dwrap%3Bhtml%3D1%3Balign%3Dcenter%3BfontStyle%3D4%3B%22%20vertex%3D%221%22%20parent%3D%221%22%3E%3CmxGeometry%20x%3D%22580%22%20y%3D%22190%22%20width%3D%22100%22%20height%3D%2240%22%20as%3D%22geometry%22%2F%3E%3C%2FmxCell%3E%3C%2Froot%3E%3C%2FmxGraphModel%3E&lt;/span&gt;" style="ellipse;whiteSpace=wrap;html=1;align=center;" parent="1" vertex="1">
                    <mxGeometry x="990" y="820" width="90" height="40" as="geometry"/>
                </mxCell>
                <mxCell id="13" value="Price" style="ellipse;whiteSpace=wrap;html=1;align=center;" parent="1" vertex="1">
                    <mxGeometry x="810" y="810" width="100" height="40" as="geometry"/>
                </mxCell>
                <mxCell id="14" value="Ingredients" style="ellipse;whiteSpace=wrap;html=1;align=center;" parent="1" vertex="1">
                    <mxGeometry x="800" y="710" width="100" height="40" as="geometry"/>
                </mxCell>
                <mxCell id="15" value="" style="endArrow=none;html=1;rounded=0;exitX=0.677;exitY=0.06;exitDx=0;exitDy=0;entryX=0;entryY=1;entryDx=0;entryDy=0;exitPerimeter=0;" parent="1" source="13" target="3" edge="1">
                    <mxGeometry relative="1" as="geometry">
                        <mxPoint x="725" y="726" as="sourcePoint"/>
                        <mxPoint x="760" y="720" as="targetPoint"/>
                    </mxGeometry>
                </mxCell>
                <mxCell id="16" value="" style="endArrow=none;html=1;rounded=0;exitX=0.5;exitY=0;exitDx=0;exitDy=0;entryX=1;entryY=1;entryDx=0;entryDy=0;" parent="1" source="12" target="3" edge="1">
                    <mxGeometry relative="1" as="geometry">
                        <mxPoint x="735" y="736" as="sourcePoint"/>
                        <mxPoint x="770" y="730" as="targetPoint"/>
                    </mxGeometry>
                </mxCell>
                <mxCell id="17" value="" style="endArrow=none;html=1;rounded=0;exitX=0;exitY=1;exitDx=0;exitDy=0;entryX=1;entryY=0;entryDx=0;entryDy=0;" parent="1" source="11" target="3" edge="1">
                    <mxGeometry relative="1" as="geometry">
                        <mxPoint x="745" y="746" as="sourcePoint"/>
                        <mxPoint x="1000" y="759" as="targetPoint"/>
                    </mxGeometry>
                </mxCell>
                <mxCell id="18" value="" style="endArrow=none;html=1;rounded=0;exitX=1;exitY=1;exitDx=0;exitDy=0;entryX=0;entryY=0;entryDx=0;entryDy=0;" parent="1" source="14" target="3" edge="1">
                    <mxGeometry relative="1" as="geometry">
                        <mxPoint x="755" y="756" as="sourcePoint"/>
                        <mxPoint x="790" y="750" as="targetPoint"/>
                    </mxGeometry>
                </mxCell>
                <mxCell id="19" value="OrderID" style="ellipse;whiteSpace=wrap;html=1;align=center;fontStyle=4;" parent="1" vertex="1">
                    <mxGeometry x="1020" y="950" width="100" height="40" as="geometry"/>
                </mxCell>
                <mxCell id="20" value="&lt;div style=&quot;text-align: center;&quot;&gt;&lt;span style=&quot;text-align: start; background-color: transparent;&quot;&gt;CustomerName&lt;/span&gt;&lt;span style=&quot;font-family: monospace; font-size: 0px; text-align: start; text-wrap: nowrap; background-color: transparent;&quot;&gt;%3CmxGraphModel%3E%3Croot%3E%3CmxCell%20id%3D%220%22%2F%3E%3CmxCell%20id%3D%221%22%20parent%3D%220%22%2F%3E%3CmxCell%20id%3D%222%22%20value%3D%22UserID%22%20style%3D%22ellipse%3BwhiteSpace%3Dwrap%3Bhtml%3D1%3Balign%3Dcenter%3BfontStyle%3D4%3B%22%20vertex%3D%221%22%20parent%3D%221%22%3E%3CmxGeometry%20x%3D%22580%22%20y%3D%22190%22%20width%3D%22100%22%20height%3D%2240%22%20as%3D%22geometry%22%2F%3E%3C%2FmxCell%3E%3C%2Froot%3E%3C%2FmxGraphModel%3E&lt;/span&gt;&lt;/div&gt;" style="ellipse;whiteSpace=wrap;html=1;align=center;" parent="1" vertex="1">
                    <mxGeometry x="1040" y="1000.29" width="100" height="40" as="geometry"/>
                </mxCell>
                <mxCell id="21" value="Phone&amp;nbsp;" style="ellipse;whiteSpace=wrap;html=1;align=center;" parent="1" vertex="1">
                    <mxGeometry x="790" y="1060" width="100" height="40" as="geometry"/>
                </mxCell>
                <mxCell id="23" value="Time" style="ellipse;whiteSpace=wrap;html=1;align=center;" parent="1" vertex="1">
                    <mxGeometry x="850" y="1110" width="100" height="40" as="geometry"/>
                </mxCell>
                <mxCell id="24" value="" style="endArrow=none;html=1;rounded=0;exitX=0;exitY=1;exitDx=0;exitDy=0;entryX=1;entryY=0;entryDx=0;entryDy=0;" parent="1" source="19" target="4" edge="1">
                    <mxGeometry relative="1" as="geometry">
                        <mxPoint x="920" y="1050.29" as="sourcePoint"/>
                        <mxPoint x="1080" y="1050.29" as="targetPoint"/>
                    </mxGeometry>
                </mxCell>
                <mxCell id="25" value="" style="endArrow=none;html=1;rounded=0;entryX=0.25;entryY=1;entryDx=0;entryDy=0;" parent="1" source="23" target="4" edge="1">
                    <mxGeometry relative="1" as="geometry">
                        <mxPoint x="1015" y="974.29" as="sourcePoint"/>
                        <mxPoint x="1010" y="1010.29" as="targetPoint"/>
                    </mxGeometry>
                </mxCell>
                <mxCell id="26" value="" style="endArrow=none;html=1;rounded=0;exitX=1;exitY=0.5;exitDx=0;exitDy=0;entryX=0;entryY=0.5;entryDx=0;entryDy=0;" parent="1" source="4" target="20" edge="1">
                    <mxGeometry relative="1" as="geometry">
                        <mxPoint x="1025" y="984.29" as="sourcePoint"/>
                        <mxPoint x="1020" y="1020.29" as="targetPoint"/>
                    </mxGeometry>
                </mxCell>
                <mxCell id="27" value="" style="endArrow=none;html=1;rounded=0;exitX=1;exitY=0;exitDx=0;exitDy=0;entryX=0;entryY=1;entryDx=0;entryDy=0;" parent="1" source="21" target="4" edge="1">
                    <mxGeometry relative="1" as="geometry">
                        <mxPoint x="880.0000000000002" y="1060.29" as="sourcePoint"/>
                        <mxPoint x="1030" y="1030.29" as="targetPoint"/>
                    </mxGeometry>
                </mxCell>
                <mxCell id="29" value="creates" style="shape=rhombus;perimeter=rhombusPerimeter;whiteSpace=wrap;html=1;align=center;" parent="1" vertex="1">
                    <mxGeometry x="650" y="750" width="120" height="60" as="geometry"/>
                </mxCell>
                <mxCell id="30" value="" style="endArrow=none;html=1;rounded=0;exitX=1;exitY=0.5;exitDx=0;exitDy=0;entryX=0;entryY=0.5;entryDx=0;entryDy=0;" parent="1" source="2" target="29" edge="1">
                    <mxGeometry relative="1" as="geometry">
                        <mxPoint x="680" y="710" as="sourcePoint"/>
                        <mxPoint x="840" y="710" as="targetPoint"/>
                    </mxGeometry>
                </mxCell>
                <mxCell id="31" value="1" style="resizable=0;html=1;whiteSpace=wrap;align=right;verticalAlign=bottom;" parent="30" connectable="0" vertex="1">
                    <mxGeometry x="1" relative="1" as="geometry"/>
                </mxCell>
                <mxCell id="32" value="" style="endArrow=none;html=1;rounded=0;entryX=1;entryY=0.5;entryDx=0;entryDy=0;exitX=0;exitY=0.5;exitDx=0;exitDy=0;" parent="1" source="3" target="29" edge="1">
                    <mxGeometry relative="1" as="geometry">
                        <mxPoint x="630" y="720" as="sourcePoint"/>
                        <mxPoint x="790" y="720" as="targetPoint"/>
                    </mxGeometry>
                </mxCell>
                <mxCell id="33" value="N" style="resizable=0;html=1;whiteSpace=wrap;align=right;verticalAlign=bottom;" parent="32" connectable="0" vertex="1">
                    <mxGeometry x="1" relative="1" as="geometry">
                        <mxPoint x="10" as="offset"/>
                    </mxGeometry>
                </mxCell>
                <mxCell id="34" value="included_in" style="shape=rhombus;perimeter=rhombusPerimeter;whiteSpace=wrap;html=1;align=center;" parent="1" vertex="1">
                    <mxGeometry x="890" y="880.29" width="120" height="60" as="geometry"/>
                </mxCell>
                <mxCell id="39" value="Role" style="ellipse;whiteSpace=wrap;html=1;align=center;" parent="1" vertex="1">
                    <mxGeometry x="320" y="760" width="100" height="40" as="geometry"/>
                </mxCell>
                <mxCell id="40" value="accountCreated" style="ellipse;whiteSpace=wrap;html=1;align=center;" parent="1" vertex="1">
                    <mxGeometry x="540" y="810" width="100" height="40" as="geometry"/>
                </mxCell>
                <mxCell id="41" value="" style="endArrow=none;html=1;rounded=0;entryX=1;entryY=0.5;entryDx=0;entryDy=0;" parent="1" target="39" edge="1">
                    <mxGeometry relative="1" as="geometry">
                        <mxPoint x="440" y="780" as="sourcePoint"/>
                        <mxPoint x="640" y="900" as="targetPoint"/>
                    </mxGeometry>
                </mxCell>
                <mxCell id="42" value="" style="endArrow=none;html=1;rounded=0;exitX=0.5;exitY=0;exitDx=0;exitDy=0;entryX=1;entryY=1;entryDx=0;entryDy=0;" parent="1" source="40" target="2" edge="1">
                    <mxGeometry relative="1" as="geometry">
                        <mxPoint x="670" y="850" as="sourcePoint"/>
                        <mxPoint x="830" y="850" as="targetPoint"/>
                    </mxGeometry>
                </mxCell>
                <mxCell id="43" value="createdAt" style="ellipse;whiteSpace=wrap;html=1;align=center;" parent="1" vertex="1">
                    <mxGeometry x="1065" y="790" width="80" height="40" as="geometry"/>
                </mxCell>
                <mxCell id="45" value="Category" style="ellipse;whiteSpace=wrap;html=1;align=center;" parent="1" vertex="1">
                    <mxGeometry x="1070" y="740" width="70" height="40" as="geometry"/>
                </mxCell>
                <mxCell id="46" value="" style="endArrow=none;html=1;rounded=0;entryX=1;entryY=0.25;entryDx=0;entryDy=0;exitX=0;exitY=0.5;exitDx=0;exitDy=0;" parent="1" source="45" target="3" edge="1">
                    <mxGeometry relative="1" as="geometry">
                        <mxPoint x="1090" y="890" as="sourcePoint"/>
                        <mxPoint x="1090" y="920" as="targetPoint"/>
                    </mxGeometry>
                </mxCell>
                <mxCell id="47" value="" style="endArrow=none;html=1;rounded=0;exitX=1;exitY=0.75;exitDx=0;exitDy=0;entryX=0;entryY=0.5;entryDx=0;entryDy=0;" parent="1" source="3" target="43" edge="1">
                    <mxGeometry relative="1" as="geometry">
                        <mxPoint x="1108.2" y="919.8" as="sourcePoint"/>
                        <mxPoint x="1260" y="970" as="targetPoint"/>
                    </mxGeometry>
                </mxCell>
                <mxCell id="50" value="People" style="ellipse;whiteSpace=wrap;html=1;align=center;" parent="1" vertex="1">
                    <mxGeometry x="780" y="950" width="100" height="40" as="geometry"/>
                </mxCell>
                <mxCell id="51" value="Note" style="ellipse;whiteSpace=wrap;html=1;align=center;" parent="1" vertex="1">
                    <mxGeometry x="750" y="1000.29" width="100" height="40" as="geometry"/>
                </mxCell>
                <mxCell id="52" value="Status" style="ellipse;whiteSpace=wrap;html=1;align=center;" parent="1" vertex="1">
                    <mxGeometry x="960" y="1110" width="100" height="40" as="geometry"/>
                </mxCell>
                <mxCell id="53" value="createdAt" style="ellipse;whiteSpace=wrap;html=1;align=center;" parent="1" vertex="1">
                    <mxGeometry x="1020" y="1050" width="100" height="40" as="geometry"/>
                </mxCell>
                <mxCell id="55" value="" style="endArrow=none;html=1;rounded=0;exitX=1;exitY=1;exitDx=0;exitDy=0;entryX=0;entryY=0;entryDx=0;entryDy=0;" parent="1" source="4" target="53" edge="1">
                    <mxGeometry relative="1" as="geometry">
                        <mxPoint x="1000" y="1049.71" as="sourcePoint"/>
                        <mxPoint x="1040" y="1049.71" as="targetPoint"/>
                    </mxGeometry>
                </mxCell>
                <mxCell id="56" value="" style="endArrow=none;html=1;rounded=0;entryX=0.75;entryY=1;entryDx=0;entryDy=0;exitX=0.5;exitY=0;exitDx=0;exitDy=0;" parent="1" source="52" target="4" edge="1">
                    <mxGeometry relative="1" as="geometry">
                        <mxPoint x="969.5" y="1110" as="sourcePoint"/>
                        <mxPoint x="989.5" y="1040" as="targetPoint"/>
                    </mxGeometry>
                </mxCell>
                <mxCell id="57" value="" style="endArrow=none;html=1;rounded=0;entryX=0;entryY=0;entryDx=0;entryDy=0;" parent="1" source="50" target="4" edge="1">
                    <mxGeometry relative="1" as="geometry">
                        <mxPoint x="840" y="1040" as="sourcePoint"/>
                        <mxPoint x="1000" y="1040" as="targetPoint"/>
                    </mxGeometry>
                </mxCell>
                <mxCell id="58" value="" style="endArrow=none;html=1;rounded=0;exitX=1;exitY=0.5;exitDx=0;exitDy=0;entryX=0;entryY=0.5;entryDx=0;entryDy=0;" parent="1" source="51" target="4" edge="1">
                    <mxGeometry relative="1" as="geometry">
                        <mxPoint x="874" y="995" as="sourcePoint"/>
                        <mxPoint x="910" y="1010" as="targetPoint"/>
                    </mxGeometry>
                </mxCell>
                <mxCell id="59" value="Review" style="whiteSpace=wrap;html=1;align=center;" parent="1" vertex="1">
                    <mxGeometry x="900" y="500" width="100" height="40" as="geometry"/>
                </mxCell>
                <mxCell id="60" value="name" style="ellipse;whiteSpace=wrap;html=1;align=center;" parent="1" vertex="1">
                    <mxGeometry x="780" y="450" width="100" height="40" as="geometry"/>
                </mxCell>
                <mxCell id="61" value="&lt;table&gt;&lt;tbody&gt;&lt;tr&gt;&lt;td data-col-size=&quot;sm&quot; data-end=&quot;1580&quot; data-start=&quot;1570&quot;&gt;Comment&lt;br&gt;&lt;table&gt;&lt;tbody&gt;&lt;tr&gt;&lt;/tr&gt;&lt;/tbody&gt;&lt;/table&gt;&lt;/td&gt;&lt;/tr&gt;&lt;/tbody&gt;&lt;/table&gt;" style="ellipse;whiteSpace=wrap;html=1;align=center;" parent="1" vertex="1">
                    <mxGeometry x="790" y="560.29" width="100" height="40" as="geometry"/>
                </mxCell>
                <mxCell id="62" value="" style="endArrow=none;html=1;rounded=0;exitX=1;exitY=0;exitDx=0;exitDy=0;entryX=0;entryY=1;entryDx=0;entryDy=0;" parent="1" source="61" target="59" edge="1">
                    <mxGeometry relative="1" as="geometry">
                        <mxPoint x="1020" y="660" as="sourcePoint"/>
                        <mxPoint x="1180" y="660" as="targetPoint"/>
                    </mxGeometry>
                </mxCell>
                <mxCell id="63" value="" style="endArrow=none;html=1;rounded=0;exitX=0;exitY=0;exitDx=0;exitDy=0;entryX=1;entryY=1;entryDx=0;entryDy=0;" parent="1" source="59" target="60" edge="1">
                    <mxGeometry relative="1" as="geometry">
                        <mxPoint x="875" y="566" as="sourcePoint"/>
                        <mxPoint x="910" y="560" as="targetPoint"/>
                    </mxGeometry>
                </mxCell>
                <mxCell id="64" value="id" style="ellipse;whiteSpace=wrap;html=1;align=center;fontStyle=4;" parent="1" vertex="1">
                    <mxGeometry x="1030" y="440" width="100" height="40" as="geometry"/>
                </mxCell>
                <mxCell id="65" value="" style="endArrow=none;html=1;rounded=0;entryX=0.5;entryY=1;entryDx=0;entryDy=0;exitX=1;exitY=0;exitDx=0;exitDy=0;" parent="1" source="59" target="64" edge="1">
                    <mxGeometry relative="1" as="geometry">
                        <mxPoint x="1000" y="510" as="sourcePoint"/>
                        <mxPoint x="920" y="570" as="targetPoint"/>
                    </mxGeometry>
                </mxCell>
                <mxCell id="66" value="Rating" style="ellipse;whiteSpace=wrap;html=1;align=center;" parent="1" vertex="1">
                    <mxGeometry x="1100" y="500" width="100" height="40" as="geometry"/>
                </mxCell>
                <mxCell id="67" value="MenuItem" style="ellipse;whiteSpace=wrap;html=1;align=center;" parent="1" vertex="1">
                    <mxGeometry x="900" y="420" width="100" height="40" as="geometry"/>
                </mxCell>
                <mxCell id="68" value="" style="endArrow=none;html=1;rounded=0;entryX=0;entryY=0.5;entryDx=0;entryDy=0;exitX=1;exitY=0.5;exitDx=0;exitDy=0;" parent="1" source="59" target="66" edge="1">
                    <mxGeometry relative="1" as="geometry">
                        <mxPoint x="1250" y="520" as="sourcePoint"/>
                        <mxPoint x="1450" y="640" as="targetPoint"/>
                    </mxGeometry>
                </mxCell>
                <mxCell id="69" value="" style="endArrow=none;html=1;rounded=0;exitX=0.5;exitY=0;exitDx=0;exitDy=0;entryX=0.5;entryY=1;entryDx=0;entryDy=0;" parent="1" source="59" target="67" edge="1">
                    <mxGeometry relative="1" as="geometry">
                        <mxPoint x="940" y="490" as="sourcePoint"/>
                        <mxPoint x="930" y="359.71000000000004" as="targetPoint"/>
                    </mxGeometry>
                </mxCell>
                <mxCell id="70" value="createdAt" style="ellipse;whiteSpace=wrap;html=1;align=center;" parent="1" vertex="1">
                    <mxGeometry x="1010" y="560.29" width="100" height="40" as="geometry"/>
                </mxCell>
                <mxCell id="71" value="" style="endArrow=none;html=1;rounded=0;entryX=0;entryY=0;entryDx=0;entryDy=0;" parent="1" target="70" edge="1">
                    <mxGeometry relative="1" as="geometry">
                        <mxPoint x="1000" y="540.29" as="sourcePoint"/>
                        <mxPoint x="1060" y="480.28999999999996" as="targetPoint"/>
                    </mxGeometry>
                </mxCell>
                <mxCell id="72" value="ContactMessage" style="whiteSpace=wrap;html=1;align=center;" parent="1" vertex="1">
                    <mxGeometry x="440" y="1030" width="100" height="40" as="geometry"/>
                </mxCell>
                <mxCell id="73" value="Email" style="ellipse;whiteSpace=wrap;html=1;align=center;" parent="1" vertex="1">
                    <mxGeometry x="330" y="980" width="100" height="40" as="geometry"/>
                </mxCell>
                <mxCell id="74" value="Message" style="ellipse;whiteSpace=wrap;html=1;align=center;" parent="1" vertex="1">
                    <mxGeometry x="330" y="1080" width="100" height="40" as="geometry"/>
                </mxCell>
                <mxCell id="75" value="" style="endArrow=none;html=1;rounded=0;exitX=1;exitY=0;exitDx=0;exitDy=0;entryX=0;entryY=1;entryDx=0;entryDy=0;" parent="1" source="74" target="72" edge="1">
                    <mxGeometry relative="1" as="geometry">
                        <mxPoint x="560" y="1190" as="sourcePoint"/>
                        <mxPoint x="720" y="1190" as="targetPoint"/>
                    </mxGeometry>
                </mxCell>
                <mxCell id="76" value="" style="endArrow=none;html=1;rounded=0;exitX=0;exitY=0;exitDx=0;exitDy=0;entryX=1;entryY=1;entryDx=0;entryDy=0;" parent="1" source="72" target="73" edge="1">
                    <mxGeometry relative="1" as="geometry">
                        <mxPoint x="415" y="1096" as="sourcePoint"/>
                        <mxPoint x="450" y="1090" as="targetPoint"/>
                    </mxGeometry>
                </mxCell>
                <mxCell id="77" value="id" style="ellipse;whiteSpace=wrap;html=1;align=center;fontStyle=4;" parent="1" vertex="1">
                    <mxGeometry x="540" y="970" width="100" height="40" as="geometry"/>
                </mxCell>
                <mxCell id="78" value="" style="endArrow=none;html=1;rounded=0;entryX=0.5;entryY=1;entryDx=0;entryDy=0;exitX=1;exitY=0;exitDx=0;exitDy=0;" parent="1" source="72" target="77" edge="1">
                    <mxGeometry relative="1" as="geometry">
                        <mxPoint x="540" y="1040" as="sourcePoint"/>
                        <mxPoint x="460" y="1100" as="targetPoint"/>
                    </mxGeometry>
                </mxCell>
                <mxCell id="79" value="Name" style="ellipse;whiteSpace=wrap;html=1;align=center;" parent="1" vertex="1">
                    <mxGeometry x="320" y="1030" width="100" height="40" as="geometry"/>
                </mxCell>
                <mxCell id="80" value="createdAt" style="ellipse;whiteSpace=wrap;html=1;align=center;" parent="1" vertex="1">
                    <mxGeometry x="530" y="1090" width="100" height="40" as="geometry"/>
                </mxCell>
                <mxCell id="81" value="" style="endArrow=none;html=1;rounded=0;entryX=1;entryY=0.5;entryDx=0;entryDy=0;" parent="1" target="79" edge="1">
                    <mxGeometry relative="1" as="geometry">
                        <mxPoint x="440" y="1050" as="sourcePoint"/>
                        <mxPoint x="640" y="1170" as="targetPoint"/>
                    </mxGeometry>
                </mxCell>
                <mxCell id="82" value="" style="endArrow=none;html=1;rounded=0;exitX=0.5;exitY=0;exitDx=0;exitDy=0;entryX=1;entryY=1;entryDx=0;entryDy=0;" parent="1" source="80" target="72" edge="1">
                    <mxGeometry relative="1" as="geometry">
                        <mxPoint x="670" y="1120" as="sourcePoint"/>
                        <mxPoint x="830" y="1120" as="targetPoint"/>
                    </mxGeometry>
                </mxCell>
                <mxCell id="96" value="recieves" style="shape=rhombus;perimeter=rhombusPerimeter;whiteSpace=wrap;html=1;align=center;" parent="1" vertex="1">
                    <mxGeometry x="890" y="620" width="120" height="60" as="geometry"/>
                </mxCell>
                <mxCell id="99" value="" style="endArrow=none;html=1;rounded=0;entryX=0.5;entryY=0;entryDx=0;entryDy=0;exitX=0.5;exitY=1;exitDx=0;exitDy=0;" parent="1" source="59" target="96" edge="1">
                    <mxGeometry relative="1" as="geometry">
                        <mxPoint x="930" y="560" as="sourcePoint"/>
                        <mxPoint x="860" y="580" as="targetPoint"/>
                    </mxGeometry>
                </mxCell>
                <mxCell id="100" value="N" style="resizable=0;html=1;whiteSpace=wrap;align=right;verticalAlign=bottom;" parent="99" connectable="0" vertex="1">
                    <mxGeometry x="1" relative="1" as="geometry">
                        <mxPoint as="offset"/>
                    </mxGeometry>
                </mxCell>
                <mxCell id="101" value="" style="endArrow=none;html=1;rounded=0;entryX=0.5;entryY=0;entryDx=0;entryDy=0;" parent="1" source="72" target="103" edge="1">
                    <mxGeometry relative="1" as="geometry">
                        <mxPoint x="480" y="860" as="sourcePoint"/>
                        <mxPoint x="640" y="940" as="targetPoint"/>
                    </mxGeometry>
                </mxCell>
                <mxCell id="102" value="N" style="resizable=0;html=1;whiteSpace=wrap;align=right;verticalAlign=bottom;" parent="101" connectable="0" vertex="1">
                    <mxGeometry x="1" relative="1" as="geometry">
                        <mxPoint as="offset"/>
                    </mxGeometry>
                </mxCell>
                <mxCell id="103" value="writes" style="shape=rhombus;perimeter=rhombusPerimeter;whiteSpace=wrap;html=1;align=center;" parent="1" vertex="1">
                    <mxGeometry x="430" y="880.29" width="120" height="60" as="geometry"/>
                </mxCell>
                <mxCell id="111" value="" style="shape=link;html=1;rounded=0;entryX=0.5;entryY=1;entryDx=0;entryDy=0;exitX=0.5;exitY=0;exitDx=0;exitDy=0;" parent="1" source="3" target="96" edge="1">
                    <mxGeometry relative="1" as="geometry">
                        <mxPoint x="915" y="760" as="sourcePoint"/>
                        <mxPoint x="1025" y="660" as="targetPoint"/>
                    </mxGeometry>
                </mxCell>
                <mxCell id="112" value="1" style="resizable=0;html=1;whiteSpace=wrap;align=right;verticalAlign=bottom;" parent="111" connectable="0" vertex="1">
                    <mxGeometry x="1" relative="1" as="geometry">
                        <mxPoint y="20" as="offset"/>
                    </mxGeometry>
                </mxCell>
                <mxCell id="113" value="" style="shape=link;html=1;rounded=0;entryX=0.5;entryY=1;entryDx=0;entryDy=0;" parent="1" source="4" target="34" edge="1">
                    <mxGeometry relative="1" as="geometry">
                        <mxPoint x="970" y="850" as="sourcePoint"/>
                        <mxPoint x="1130" y="850" as="targetPoint"/>
                    </mxGeometry>
                </mxCell>
                <mxCell id="114" value="N" style="resizable=0;html=1;whiteSpace=wrap;align=right;verticalAlign=bottom;" parent="113" connectable="0" vertex="1">
                    <mxGeometry x="1" relative="1" as="geometry">
                        <mxPoint x="-10" y="20" as="offset"/>
                    </mxGeometry>
                </mxCell>
                <mxCell id="115" value="" style="shape=link;html=1;rounded=0;entryX=0.5;entryY=0;entryDx=0;entryDy=0;exitX=0.5;exitY=1;exitDx=0;exitDy=0;" parent="1" source="3" target="34" edge="1">
                    <mxGeometry relative="1" as="geometry">
                        <mxPoint x="960" y="1010" as="sourcePoint"/>
                        <mxPoint x="960" y="950" as="targetPoint"/>
                    </mxGeometry>
                </mxCell>
                <mxCell id="116" value="M" style="resizable=0;html=1;whiteSpace=wrap;align=right;verticalAlign=bottom;" parent="115" connectable="0" vertex="1">
                    <mxGeometry x="1" relative="1" as="geometry">
                        <mxPoint x="-10" as="offset"/>
                    </mxGeometry>
                </mxCell>
                <mxCell id="117" value="" style="shape=link;html=1;rounded=0;entryX=0.5;entryY=0;entryDx=0;entryDy=0;" parent="1" target="103" edge="1">
                    <mxGeometry relative="1" as="geometry">
                        <mxPoint x="490" y="800" as="sourcePoint"/>
                        <mxPoint x="490" y="850" as="targetPoint"/>
                    </mxGeometry>
                </mxCell>
                <mxCell id="118" value="1" style="resizable=0;html=1;whiteSpace=wrap;align=right;verticalAlign=bottom;" parent="117" connectable="0" vertex="1">
                    <mxGeometry x="1" relative="1" as="geometry">
                        <mxPoint y="80" as="offset"/>
                    </mxGeometry>
                </mxCell>
                <mxCell id="121" value="has" style="shape=rhombus;perimeter=rhombusPerimeter;whiteSpace=wrap;html=1;align=center;" vertex="1" parent="1">
                    <mxGeometry x="580" y="490" width="120" height="60" as="geometry"/>
                </mxCell>
                <mxCell id="126" value="" style="endArrow=none;html=1;rounded=0;entryX=0;entryY=0.5;entryDx=0;entryDy=0;exitX=0.5;exitY=0;exitDx=0;exitDy=0;" edge="1" parent="1" source="2" target="121">
                    <mxGeometry relative="1" as="geometry">
                        <mxPoint x="590" y="660" as="sourcePoint"/>
                        <mxPoint x="750" y="660" as="targetPoint"/>
                    </mxGeometry>
                </mxCell>
                <mxCell id="127" value="1" style="resizable=0;html=1;whiteSpace=wrap;align=right;verticalAlign=bottom;" connectable="0" vertex="1" parent="126">
                    <mxGeometry x="1" relative="1" as="geometry"/>
                </mxCell>
                <mxCell id="128" value="" style="endArrow=none;html=1;rounded=0;entryX=1;entryY=0.5;entryDx=0;entryDy=0;exitX=0;exitY=0.5;exitDx=0;exitDy=0;" edge="1" parent="1" source="59" target="121">
                    <mxGeometry relative="1" as="geometry">
                        <mxPoint x="500" y="770" as="sourcePoint"/>
                        <mxPoint x="570" y="550" as="targetPoint"/>
                    </mxGeometry>
                </mxCell>
                <mxCell id="129" value="N" style="resizable=0;html=1;whiteSpace=wrap;align=right;verticalAlign=bottom;" connectable="0" vertex="1" parent="128">
                    <mxGeometry x="1" relative="1" as="geometry">
                        <mxPoint as="offset"/>
                    </mxGeometry>
                </mxCell>
            </root>
        </mxGraphModel>
    </diagram>
</mxfile>